<?xml version="1.0" standalone="no"?>
<!DOCTYPE svg PUBLIC "-//W3C//DTD SVG 20010904//EN"
 "http://www.w3.org/TR/2001/REC-SVG-20010904/DTD/svg10.dtd">
<svg version="1.0" xmlns="http://www.w3.org/2000/svg"
 width="225.000000pt" height="225.000000pt" viewBox="0 0 225.000000 225.000000"
 preserveAspectRatio="xMidYMid meet">
<metadata>
Created by potrace 1.11, written by Peter Selinger 2001-2013
</metadata>
<g transform="translate(0.000000,225.000000) scale(0.100000,-0.100000)"
fill="#000000" stroke="none">
<path d="M160 2153 c-40 -16 -39 -4 -40 -1000 0 -950 0 -963 20 -983 20 -20
33 -20 976 -20 961 0 984 1 1006 34 4 6 8 442 8 969 l0 958 -25 24 -24 25
-953 -1 c-524 0 -960 -3 -968 -6z m298 -822 c2 -381 5 -497 15 -503 6 -4 45
-8 85 -8 l72 0 -2 -302 -3 -303 -225 0 -225 0 -3 808 -2 808 142 -3 143 -3 3
-494z m520 5 c1 -341 6 -493 13 -503 7 -8 32 -13 65 -13 l54 0 -2 -302 -3
-303 -220 0 -220 0 -3 302 -2 302 32 3 33 3 3 490 c1 270 4 495 6 500 2 7 50
11 122 10 l119 0 3 -489z m530 0 c1 -341 6 -493 13 -503 6 -7 24 -13 40 -13
l29 0 -2 -303 -3 -302 -220 0 -220 0 -3 303 -2 302 55 0 c44 0 56 4 65 20 7
14 10 172 9 494 -1 260 2 479 5 485 5 8 43 11 119 9 l112 -3 3 -489z m570
-296 c1 -432 0 -795 -3 -807 -5 -23 -6 -23 -225 -23 -120 0 -221 3 -223 7 -3
5 -7 141 -8 303 l-4 295 75 3 c41 2 80 8 87 14 10 8 13 111 13 498 0 267 3
490 7 494 4 3 68 5 142 4 l136 -3 3 -785z"/>
</g>
</svg>
